<svg width="500" height="240" xmlns="http://www.w3.org/2000/svg">

 <g>
  <title>background</title>
  <rect fill="none" id="canvas_background" height="242" width="502" y="-1" x="-1"/>
 </g>
 <g>
  <title>Layer 1</title>
  <g id="svg_1">
   <path id="svg_2" fill="#f4beb6" stroke-width="2" d="m445,1l-352,0c-30.878,0 -56,25.122 -56,56l0,76.687l-32,32c-4.592,4.592 -5.954,11.437 -3.468,17.437s8.287,9.876 14.781,9.876l21.257,0c3.894,27.103 27.268,48 55.43,48l352,0c30.878,0 56,-25.122 56,-56l0,-128c0,-30.878 -25.122,-56 -56,-56zm40,184c0,22.056 -17.944,40 -40,40l-352,0c-22.056,0 -40,-17.944 -40,-40c0,-4.418 -3.582,-8 -8,-8l-28.682,-0.005l34.338,-34.338c1.5,-1.5 2.343,-3.535 2.343,-5.657l0,-80c0,-22.056 17.944,-40 40,-40l352,0c22.056,0 40,17.944 40,40l0,128l0.001,0z"/>
  </g>
 </g>
</svg>